# Alias OBJ Model File
# Exported from SketchUp, (c) 2000-2012 Trimble Navigation Limited
# File units = meters

mtllib world1.mtl

g Mesh1 Model

usemtl FrontColor
v 165.214 -127.6 1251.54
vt 6504.5 -49273.4
vn 0 1 -0
v -119.767 -127.6 856.369
vt -4715.23 -33715.3
v -125.966 -127.6 1251.54
vt -4959.28 -49273.4
f 1/1/1 2/2/1 3/3/1

v 159.303 -127.6 856.369
vt 6271.78 -33715.3
f 2/2/1 1/1/1 4/4/1

v 159.303 -127.6 577.299
vt 6271.78 -22728.3
f 4/4/1 1/1/1 5/5/1

v 616.201 -127.6 -776.991
vt 24259.9 30590.2
f 6/6/1 5/5/1 1/1/1

v -119.767 -127.6 577.299
vt -4715.23 -22728.3
f 6/6/1 7/7/1 5/5/1

v -433.689 -127.6 -776.991
vt -17074.4 30590.2
f 8/8/1 7/7/1 6/6/1

v -222.849 -127.6 2095.71
vt -8773.58 -82508.2
f 7/7/1 8/8/1 9/9/1

v -222.849 -127.6 2355.78
vt -8773.58 -92747.2
f 9/9/1 8/8/1 10/10/1

v -433.689 -127.6 2390.29
vt -17074.4 -94105.9
f 11/11/1 10/10/1 8/8/1

v 616.201 -127.6 2390.29
vt 24259.9 -94105.9
f 10/10/1 11/11/1 12/12/1

vt 24259.9 -5023.62
vn 0 0 1
vt -17074.4 -5023.62
v -433.689 -303.51 2390.29
vt -17074.4 -11949.2
v 616.201 -303.51 2390.29
vt 24259.9 -11949.2
f 12/13/2 11/14/2 13/15/2 14/16/2 

vt 94105.9 -5023.62
vn -1 0 -0
vt -30590.2 -5023.62
v -433.689 -303.51 -776.991
vt -30590.2 -11949.2
vt 94105.9 -11949.2
f 11/17/3 8/18/3 15/19/3 13/20/3 

vt 17074.4 -5023.62
vn 0 0 -1
vt -24259.9 -5023.62
v 616.201 -303.51 -776.991
vt -24259.9 -11949.2
vt 17074.4 -11949.2
f 8/21/4 6/22/4 16/23/4 15/24/4 

vt 30590.2 -5023.62
vn 1 0 -0
vt -94105.9 -5023.62
vt -94105.9 -11949.2
vt 30590.2 -11949.2
f 6/25/5 12/26/5 14/27/5 16/28/5 

f 6/6/1 1/1/1 12/12/1

v 165.214 -127.6 1678.42
vt 6504.5 -66079.7
f 17/29/1 12/12/1 1/1/1

v 17.1912 -127.6 2095.71
vt 676.818 -82508.2
f 18/30/1 12/12/1 17/29/1

v 17.1912 -127.6 2355.78
vt 676.818 -92747.2
f 19/31/1 12/12/1 18/30/1

f 10/10/1 12/12/1 19/31/1

vt -8773.58 -5023.62
vt 676.818 -5023.62
v 17.1912 925.3 2355.78
vt 676.818 36429.1
v -222.849 925.3 2355.78
vt -8773.58 36429.1
f 10/32/2 19/33/2 20/34/2 21/35/2 

vt -92747.2 -5023.62
vt -82508.2 -5023.62
v 17.1912 925.3 2095.71
vt -82508.2 36429.1
vt -92747.2 36429.1
f 19/36/5 18/37/5 22/38/5 20/39/5 

vt -676.818 -5023.62
vt 8773.58 -5023.62
v -222.849 925.3 2095.71
vt 8773.58 36429.1
vt -676.818 36429.1
f 18/40/4 9/41/4 23/42/4 22/43/4 

v -125.966 -127.6 1678.42
vt -4959.28 -66079.7
f 18/30/1 24/44/1 9/9/1

f 24/44/1 18/30/1 17/29/1

vt -4959.28 -5023.62
vt 6504.5 -5023.62
v 165.214 271.65 1678.42
vt 6504.5 10694.9
v -125.966 271.65 1678.42
vt -4959.28 10694.9
f 24/45/2 17/46/2 25/47/2 26/48/2 

vt -66079.7 -5023.62
vt -49273.4 -5023.62
v 165.214 271.65 1251.54
vt -49273.4 10694.9
vt -66079.7 10694.9
f 17/49/5 1/50/5 27/51/5 25/52/5 

vt -6504.5 -5023.62
vt 4959.28 -5023.62
v -125.966 271.65 1251.54
vt 4959.28 10694.9
vt -6504.5 10694.9
f 1/53/4 3/54/4 28/55/4 27/56/4 

vt 49273.4 -5023.62
vt 66079.7 -5023.62
vt 66079.7 10694.9
vt 49273.4 10694.9
f 3/57/3 24/58/3 26/59/3 28/60/3 

f 3/3/1 9/9/1 24/44/1

f 7/7/1 9/9/1 3/3/1

f 7/7/1 3/3/1 2/2/1

vt 22728.3 -5023.62
vt 33715.3 -5023.62
v -119.767 26.37 856.369
vt 33715.3 1038.19
v -119.767 26.37 577.299
vt 22728.3 1038.19
f 7/61/3 2/62/3 29/63/3 30/64/3 

vt -4715.23 -5023.62
vt 6271.78 -5023.62
v 159.303 26.37 856.369
vt 6271.78 1038.19
vt -4715.23 1038.19
f 2/65/2 4/66/2 31/67/2 29/68/2 

vt -33715.3 -5023.62
vt -22728.3 -5023.62
v 159.303 26.37 577.299
vt -22728.3 1038.19
vt -33715.3 1038.19
f 4/69/5 5/70/5 32/71/5 31/72/5 

vt -6271.78 -5023.62
vt 4715.23 -5023.62
vt 4715.23 1038.19
vt -6271.78 1038.19
f 5/73/4 7/74/4 30/75/4 32/76/4 

f 32/5/1 30/7/1 29/2/1 31/4/1 

f 28/3/1 26/44/1 25/29/1 27/1/1 

vt 82508.2 -5023.62
vt 92747.2 -5023.62
vt 92747.2 36429.1
vt 82508.2 36429.1
f 9/77/3 10/78/3 21/79/3 23/80/3 

f 22/30/1 23/9/1 21/10/1 20/31/1 

v 1248.92 1086.66 4433.08
vt -49170.2 177320
vn 3.45682e-017 0.996997 -0.0774444
vt -676.818 95289.9
vt 8773.58 95289.9
v 79.8419 1086.66 4433.08
vt -3143.38 177320
f 33/81/6 20/82/6 21/83/6 34/84/6 

vt -80245.3 34567.8
vn 0.860829 -0.039411 -0.507365
vt -175325 40925.5
v 1248.92 946.083 4444
vt -175695 35386.7
v 17.1912 784.723 2366.7
vt -80615.6 29029
f 20/85/7 33/86/7 35/87/7 36/88/7 

vt 49170.2 29137
vn 0 0.0774444 0.996997
vt 3143.38 29137
v 79.8419 946.083 4444
vt 3143.38 23585.8
vt 49170.2 23585.8
f 33/89/8 34/90/8 37/91/8 35/92/8 

vt 3143.38 -174531
v 79.8419 1086.66 6543.1
vt 3143.38 -257602
v 1248.92 1086.66 6543.1
vt 49170.2 -257602
vt 49170.2 -174531
f 34/93/1 38/94/1 39/95/1 33/96/1 

v 79.8419 0 4433.08
vt 174531 0
v 79.8419 0 6543.1
vt 257602 0
vt 257602 42781.9
vt 174531 42781.9
f 40/97/3 41/98/3 38/99/3 34/100/3 

vt -3143.38 -257602
vn 0 -1 -0
vt -3143.38 -174531
v 1248.92 0 4433.08
vt -49170.2 -174531
v 1248.92 0 6543.1
vt -49170.2 -257602
f 41/101/9 40/102/9 42/103/9 43/104/9 

vt -49170.2 0
vt -3143.38 0
vt -3143.38 42781.9
vt -49170.2 42781.9
f 42/105/4 40/106/4 34/107/4 33/108/4 

vt -257602 0
vt -174531 0
vt -174531 42781.9
vt -257602 42781.9
f 43/109/5 42/110/5 33/111/5 39/112/5 

vt 3143.38 0
vt 49170.2 0
vt 49170.2 42781.9
vt 3143.38 42781.9
f 41/113/2 43/114/2 39/115/2 38/116/2 

vt 173179 42535.3
vn -0.989612 0.0111339 0.143335
vt 90531.8 36182.2
v -222.849 784.723 2366.7
vt 90957.2 30647.3
vt 173604 37000.5
f 34/117/10 21/118/10 44/119/10 37/120/10 

vt 8773.58 29137
vn 0 -0.0774444 -0.996997
vt -676.818 29137
vt -676.818 23585.8
vt 8773.58 23585.8
f 21/121/11 20/122/11 36/123/11 44/124/11 

vt 676.818 95289.9
vn -3.45682e-017 -0.996997 0.0774444
vt 49170.2 177320
vt 3143.38 177320
vt -8773.58 95289.9
f 36/125/12 35/126/12 37/127/12 44/128/12 

vt -24259.9 30590.2
vt -24259.9 -94105.9
vt 17074.4 -94105.9
vt 17074.4 30590.2
f 16/129/9 14/130/9 13/131/9 15/132/9 

